<svg width="157" height="154" viewBox="0 0 157 154" fill="none" xmlns="http://www.w3.org/2000/svg">
<path d="M101.619 164.618C131.924 134.313 131.924 85.1782 101.619 54.8727C71.3131 24.5673 22.1783 24.5673 -8.12713 54.8727C-38.4326 85.1782 -38.4326 134.313 -8.12714 164.618C22.1783 194.924 71.3131 194.924 101.619 164.618Z" stroke="#114BF4" stroke-opacity="0.17" stroke-width="2.3075" stroke-miterlimit="10"/>
<path d="M108.326 124.101C116.252 90.0986 95.1122 56.1098 61.1101 48.1845C27.108 40.2592 -6.88086 61.3985 -14.8062 95.4006C-22.7315 129.403 -1.59212 163.392 32.41 171.317C66.412 179.242 100.401 158.103 108.326 124.101Z" stroke="#114BF4" stroke-opacity="0.17" stroke-width="2.3075" stroke-miterlimit="10"/>
<path d="M46.7513 158.581C73.725 158.581 95.5915 136.715 95.5915 109.741C95.5915 82.7674 73.725 60.9009 46.7513 60.9009C19.7776 60.9009 -2.08887 82.7674 -2.08887 109.741C-2.08887 136.715 19.7776 158.581 46.7513 158.581Z" stroke="#114BF4" stroke-opacity="0.17" stroke-width="2.3075" stroke-miterlimit="10"/>
<path d="M46.7513 144.205C65.7854 144.205 81.2156 128.775 81.2156 109.741C81.2156 90.7065 65.7854 75.2764 46.7513 75.2764C27.7173 75.2764 12.2871 90.7065 12.2871 109.741C12.2871 128.775 27.7173 144.205 46.7513 144.205Z" stroke="#114BF4" stroke-opacity="0.17" stroke-width="2.3075" stroke-miterlimit="10"/>
</svg>
