<svg width="220" height="220" viewBox="0 0 220 220" fill="none" xmlns="http://www.w3.org/2000/svg">
<path d="M97.5133 116V103.184C97.5133 102.464 97.4093 101.888 97.2013 101.456C97.0093 101.008 96.5533 100.784 95.8333 100.784H95.4733V100.16H105.913C106.473 100.16 106.897 100.256 107.185 100.448C107.473 100.624 107.673 100.864 107.785 101.168C107.897 101.456 107.953 101.76 107.953 102.08V104.024H107.329C107.329 103.032 107.065 102.312 106.537 101.864C106.025 101.416 105.289 101.192 104.329 101.192H100.225V107.288H106.561V108.32H100.225V114.968H104.377C105.337 114.968 106.129 114.776 106.753 114.392C107.377 113.992 107.889 113.288 108.289 112.28L108.865 112.472L108.097 114.512C107.953 114.976 107.737 115.344 107.449 115.616C107.161 115.872 106.721 116 106.129 116H97.5133ZM111.402 116V107.744C111.402 107.024 111.298 106.448 111.09 106.016C110.898 105.568 110.442 105.344 109.722 105.344H109.386V104.72H111.69C112.25 104.72 112.682 104.8 112.986 104.96C113.306 105.104 113.546 105.328 113.706 105.632C114.01 105.36 114.434 105.104 114.978 104.864C115.522 104.608 116.234 104.48 117.114 104.48C117.978 104.48 118.738 104.624 119.394 104.912C120.05 105.184 120.554 105.64 120.906 106.28C121.274 106.904 121.458 107.76 121.458 108.848V116H118.746V108.848C118.746 108.048 118.634 107.416 118.41 106.952C118.186 106.488 117.89 106.152 117.522 105.944C117.17 105.736 116.77 105.632 116.322 105.632C115.858 105.632 115.442 105.72 115.074 105.896C114.706 106.056 114.386 106.256 114.114 106.496V116H111.402Z" fill="#041851"/>
<path d="M164.619 164.618C194.924 134.313 194.924 85.1782 164.619 54.8727C134.313 24.5673 85.1783 24.5673 54.8729 54.8727C24.5674 85.1782 24.5674 134.313 54.8729 164.618C85.1783 194.924 134.313 194.924 164.619 164.618Z" stroke="#114BF4" stroke-opacity="0.17" stroke-width="2.3075" stroke-miterlimit="10"/>
<path d="M171.326 124.101C179.252 90.0986 158.112 56.1098 124.11 48.1845C90.108 40.2592 56.1191 61.3985 48.1938 95.4006C40.2685 129.403 61.4079 163.392 95.41 171.317C129.412 179.242 163.401 158.103 171.326 124.101Z" stroke="#114BF4" stroke-opacity="0.17" stroke-width="2.3075" stroke-miterlimit="10"/>
<path d="M109.751 158.581C136.725 158.581 158.591 136.715 158.591 109.741C158.591 82.7674 136.725 60.9009 109.751 60.9009C82.7772 60.9009 60.9106 82.7674 60.9106 109.741C60.9106 136.715 82.7772 158.581 109.751 158.581Z" stroke="#114BF4" stroke-opacity="0.17" stroke-width="2.3075" stroke-miterlimit="10"/>
<path d="M109.751 144.205C128.785 144.205 144.216 128.775 144.216 109.741C144.216 90.7065 128.785 75.2764 109.751 75.2764C90.7173 75.2764 75.2871 90.7065 75.2871 109.741C75.2871 128.775 90.7173 144.205 109.751 144.205Z" stroke="#114BF4" stroke-opacity="0.17" stroke-width="2.3075" stroke-miterlimit="10"/>
</svg>
