<svg width="157" height="154" viewBox="0 0 157 154" fill="none" xmlns="http://www.w3.org/2000/svg">
<path d="M34.5133 116V103.184C34.5133 102.464 34.4093 101.888 34.2013 101.456C34.0093 101.008 33.5533 100.784 32.8333 100.784H32.4733V100.16H42.9133C43.4733 100.16 43.8973 100.256 44.1853 100.448C44.4733 100.624 44.6733 100.864 44.7853 101.168C44.8973 101.456 44.9533 101.76 44.9533 102.08V104.024H44.3293C44.3293 103.032 44.0653 102.312 43.5373 101.864C43.0253 101.416 42.2893 101.192 41.3293 101.192H37.2253V107.288H43.5613V108.32H37.2253V114.968H41.3773C42.3373 114.968 43.1293 114.776 43.7533 114.392C44.3773 113.992 44.8893 113.288 45.2893 112.28L45.8653 112.472L45.0973 114.512C44.9533 114.976 44.7373 115.344 44.4493 115.616C44.1613 115.872 43.7213 116 43.1293 116H34.5133ZM48.4022 116V107.744C48.4022 107.024 48.2982 106.448 48.0902 106.016C47.8982 105.568 47.4422 105.344 46.7222 105.344H46.3862V104.72H48.6902C49.2502 104.72 49.6822 104.8 49.9862 104.96C50.3062 105.104 50.5462 105.328 50.7062 105.632C51.0102 105.36 51.4342 105.104 51.9782 104.864C52.5222 104.608 53.2342 104.48 54.1142 104.48C54.9782 104.48 55.7382 104.624 56.3942 104.912C57.0502 105.184 57.5542 105.64 57.9062 106.28C58.2742 106.904 58.4582 107.76 58.4582 108.848V116H55.7462V108.848C55.7462 108.048 55.6342 107.416 55.4102 106.952C55.1862 106.488 54.8902 106.152 54.5222 105.944C54.1702 105.736 53.7702 105.632 53.3222 105.632C52.8582 105.632 52.4422 105.72 52.0742 105.896C51.7062 106.056 51.3862 106.256 51.1142 106.496V116H48.4022Z" fill="#041851"/>
<path d="M101.619 164.618C131.924 134.313 131.924 85.1782 101.619 54.8727C71.3131 24.5673 22.1783 24.5673 -8.12713 54.8727C-38.4326 85.1782 -38.4326 134.313 -8.12714 164.618C22.1783 194.924 71.3131 194.924 101.619 164.618Z" stroke="#114BF4" stroke-opacity="0.17" stroke-width="2.3075" stroke-miterlimit="10"/>
<path d="M108.326 124.101C116.252 90.0986 95.1122 56.1098 61.1101 48.1845C27.108 40.2592 -6.88086 61.3985 -14.8062 95.4006C-22.7315 129.403 -1.59212 163.392 32.41 171.317C66.412 179.242 100.401 158.103 108.326 124.101Z" stroke="#114BF4" stroke-opacity="0.17" stroke-width="2.3075" stroke-miterlimit="10"/>
<path d="M46.7513 158.581C73.725 158.581 95.5915 136.715 95.5915 109.741C95.5915 82.7674 73.725 60.9009 46.7513 60.9009C19.7776 60.9009 -2.08887 82.7674 -2.08887 109.741C-2.08887 136.715 19.7776 158.581 46.7513 158.581Z" stroke="#114BF4" stroke-opacity="0.17" stroke-width="2.3075" stroke-miterlimit="10"/>
<path d="M46.7513 144.205C65.7854 144.205 81.2156 128.775 81.2156 109.741C81.2156 90.7065 65.7854 75.2764 46.7513 75.2764C27.7173 75.2764 12.2871 90.7065 12.2871 109.741C12.2871 128.775 27.7173 144.205 46.7513 144.205Z" stroke="#114BF4" stroke-opacity="0.17" stroke-width="2.3075" stroke-miterlimit="10"/>
</svg>
