<svg width="48" height="48" viewBox="0 0 48 48" fill="none" xmlns="http://www.w3.org/2000/svg">
<g filter="url(#filter0_d_39_348)">
<circle cx="24" cy="20" r="20" fill="#F6F9FF"/>
</g>
<path d="M19.8864 25V23.83C20.1864 23.53 20.5704 23.164 21.0384 22.732C21.5064 22.288 21.9924 21.808 22.4964 21.292C23.0124 20.764 23.4924 20.218 23.9364 19.654C24.3804 19.078 24.7404 18.502 25.0164 17.926C25.3044 17.35 25.4484 16.786 25.4484 16.234C25.4484 15.61 25.3524 15.106 25.1604 14.722C24.9684 14.326 24.7224 14.038 24.4224 13.858C24.1224 13.666 23.8044 13.57 23.4684 13.57C22.7124 13.57 22.0764 13.822 21.5604 14.326C21.0444 14.83 20.6964 15.628 20.5164 16.72H19.8864C19.8864 16.264 19.9044 15.802 19.9404 15.334C19.9764 14.854 20.1024 14.476 20.3184 14.2C20.6424 13.804 21.1164 13.468 21.7404 13.192C22.3764 12.904 23.0724 12.76 23.8284 12.76C24.2484 12.76 24.6924 12.808 25.1604 12.904C25.6404 12.988 26.0904 13.15 26.5104 13.39C26.9424 13.63 27.2904 13.978 27.5544 14.434C27.8304 14.89 27.9684 15.49 27.9684 16.234C27.9684 16.798 27.8364 17.356 27.5724 17.908C27.3084 18.46 26.9604 19 26.5284 19.528C26.1084 20.056 25.6464 20.56 25.1424 21.04C24.6384 21.52 24.1404 21.964 23.6484 22.372C23.1564 22.768 22.7124 23.122 22.3164 23.434C21.9324 23.746 21.6444 23.998 21.4524 24.19H25.1784C25.8984 24.19 26.4504 24.022 26.8344 23.686C27.2304 23.338 27.4284 22.846 27.4284 22.21H27.9684V23.56C27.9684 23.8 27.9264 24.034 27.8424 24.262C27.7584 24.478 27.6084 24.658 27.3924 24.802C27.1764 24.934 26.8584 25 26.4384 25H19.8864Z" fill="#000086"/>
<defs>
<filter id="filter0_d_39_348" x="0" y="0" width="48" height="48" filterUnits="userSpaceOnUse" color-interpolation-filters="sRGB">
<feFlood flood-opacity="0" result="BackgroundImageFix"/>
<feColorMatrix in="SourceAlpha" type="matrix" values="0 0 0 0 0 0 0 0 0 0 0 0 0 0 0 0 0 0 127 0" result="hardAlpha"/>
<feOffset dy="4"/>
<feGaussianBlur stdDeviation="2"/>
<feComposite in2="hardAlpha" operator="out"/>
<feColorMatrix type="matrix" values="0 0 0 0 0 0 0 0 0 0 0 0 0 0 0 0 0 0 0.25 0"/>
<feBlend mode="normal" in2="BackgroundImageFix" result="effect1_dropShadow_39_348"/>
<feBlend mode="normal" in="SourceGraphic" in2="effect1_dropShadow_39_348" result="shape"/>
</filter>
</defs>
</svg>
