<svg width="468" height="193" viewBox="0 0 468 193" fill="none" xmlns="http://www.w3.org/2000/svg">
<path d="M127.421 192.963C125.462 192.963 123.488 192.28 121.938 190.893L123.615 188.882C124.78 189.839 125.997 190.455 127.473 190.455C128.638 190.455 129.336 189.995 129.336 189.238V189.201C129.336 188.481 128.891 188.11 126.731 187.553C124.127 186.885 122.45 186.166 122.45 183.598V183.561C122.45 181.216 124.334 179.665 126.976 179.665C128.861 179.665 130.464 180.259 131.777 181.312L130.301 183.457C129.158 182.663 128.03 182.181 126.939 182.181C125.848 182.181 125.277 182.678 125.277 183.309V183.346C125.277 184.192 125.833 184.474 128.067 185.045C130.687 185.728 132.163 186.67 132.163 188.926V188.963C132.171 191.523 130.212 192.963 127.421 192.963Z" fill="#FDC041"/>
<path d="M140.037 192.985C136.564 192.985 134.441 191.048 134.441 187.242V179.858H137.284V187.167C137.284 189.275 138.337 190.366 140.074 190.366C141.81 190.366 142.864 189.312 142.864 187.264V179.858H145.706V187.153C145.706 191.063 143.51 192.985 140.037 192.985Z" fill="#FDC041"/>
<path d="M154.663 193C150.856 193 148.036 190.062 148.036 186.351V186.314C148.036 182.641 150.804 179.628 154.774 179.628C157.216 179.628 158.67 180.444 159.872 181.624L158.062 183.709C157.067 182.804 156.051 182.247 154.759 182.247C152.578 182.247 151.012 184.058 151.012 186.277V186.314C151.012 188.533 152.548 190.381 154.759 190.381C156.236 190.381 157.141 189.787 158.158 188.867L159.969 190.692C158.633 192.117 157.156 193 154.663 193Z" fill="#FDC041"/>
<path d="M167.924 193C164.117 193 161.297 190.062 161.297 186.351V186.314C161.297 182.641 164.065 179.628 168.035 179.628C170.476 179.628 171.931 180.444 173.133 181.624L171.322 183.709C170.328 182.804 169.311 182.247 168.02 182.247C165.838 182.247 164.273 184.058 164.273 186.277V186.314C164.273 188.533 165.809 190.381 168.02 190.381C169.497 190.381 170.402 189.787 171.419 188.867L173.23 190.692C171.894 192.117 170.417 193 167.924 193Z" fill="#FDC041"/>
<path d="M175.501 192.785V179.858H185.252V182.388H178.328V185.008H184.421V187.538H178.328V190.254H185.348V192.785H175.501V192.785Z" fill="#FDC041"/>
<path d="M192.473 192.963C190.514 192.963 188.54 192.28 186.989 190.893L188.666 188.882C189.831 189.839 191.048 190.455 192.525 190.455C193.69 190.455 194.388 189.995 194.388 189.238V189.201C194.388 188.481 193.943 188.11 191.783 187.553C189.178 186.885 187.501 186.166 187.501 183.598V183.561C187.501 181.216 189.386 179.665 192.028 179.665C193.913 179.665 195.516 180.259 196.829 181.312L195.352 183.457C194.21 182.663 193.082 182.181 191.991 182.181C190.9 182.181 190.329 182.678 190.329 183.309V183.346C190.329 184.192 190.885 184.474 193.119 185.045C195.738 185.728 197.223 186.67 197.223 188.926V188.963C197.215 191.523 195.263 192.963 192.473 192.963Z" fill="#FDC041"/>
<path d="M204.107 192.963C202.148 192.963 200.174 192.28 198.623 190.893L200.3 188.882C201.465 189.839 202.682 190.455 204.159 190.455C205.324 190.455 206.022 189.995 206.022 189.238V189.201C206.022 188.481 205.576 188.11 203.417 187.553C200.812 186.885 199.135 186.166 199.135 183.598V183.561C199.135 181.216 201.02 179.665 203.662 179.665C205.547 179.665 207.15 180.259 208.463 181.312L206.986 183.457C205.843 182.663 204.716 182.181 203.625 182.181C202.534 182.181 201.962 182.678 201.962 183.309V183.346C201.962 184.192 202.519 184.474 204.753 185.045C207.372 185.728 208.856 186.67 208.856 188.926V188.963C208.849 191.523 206.897 192.963 204.107 192.963Z" fill="#FDC041"/>
<path d="M221.465 192.963C219.506 192.963 217.532 192.28 215.981 190.893L217.659 188.882C218.824 189.839 220.041 190.455 221.517 190.455C222.682 190.455 223.38 189.995 223.38 189.238V189.201C223.38 188.481 222.935 188.11 220.775 187.553C218.171 186.885 216.493 186.166 216.493 183.598V183.561C216.493 181.216 218.378 179.665 221.02 179.665C222.905 179.665 224.508 180.259 225.821 181.312L224.345 183.457C223.202 182.663 222.074 182.181 220.983 182.181C219.892 182.181 219.321 182.678 219.321 183.309V183.346C219.321 184.192 219.877 184.474 222.111 185.045C224.731 185.728 226.207 186.67 226.207 188.926V188.963C226.215 191.523 224.256 192.963 221.465 192.963Z" fill="#FDC041"/>
<path d="M234.266 182.477V192.785H231.424V182.477H227.491V179.858H238.199V182.477H234.266Z" fill="#FDC041"/>
<path d="M248.343 192.785L247.163 189.884H241.694L240.514 192.785H237.612L243.156 179.762H245.775L251.318 192.785H248.343ZM244.425 183.175L242.71 187.368H246.146L244.425 183.175Z" fill="#FDC041"/>
<path d="M261.159 192.785L258.391 188.652H256.158V192.785H253.315V179.858H259.222C262.272 179.858 264.098 181.461 264.098 184.125V184.162C264.098 186.247 262.97 187.561 261.33 188.169L264.491 192.785H261.159ZM261.211 184.266C261.211 183.049 260.365 182.418 258.977 182.418H256.15V186.128H259.029C260.417 186.128 261.211 185.394 261.211 184.303V184.266V184.266Z" fill="#FDC041"/>
<path d="M272.512 182.477V192.785H269.67V182.477H265.737V179.858H276.446V182.477H272.512Z" fill="#FDC041"/>
<path d="M282.954 192.963C280.995 192.963 279.021 192.28 277.47 190.893L279.147 188.882C280.312 189.839 281.529 190.455 283.006 190.455C284.171 190.455 284.868 189.995 284.868 189.238V189.201C284.868 188.481 284.423 188.11 282.264 187.553C279.659 186.885 277.982 186.166 277.982 183.598V183.561C277.982 181.216 279.867 179.665 282.508 179.665C284.393 179.665 285.996 180.259 287.31 181.312L285.833 183.457C284.69 182.663 283.562 182.181 282.471 182.181C281.38 182.181 280.809 182.678 280.809 183.309V183.346C280.809 184.192 281.366 184.474 283.599 185.045C286.219 185.728 287.696 186.67 287.696 188.926V188.963C287.696 191.523 285.744 192.963 282.954 192.963Z" fill="#FDC041"/>
<path d="M303.806 192.785V187.598H298.56V192.785H295.718V179.858H298.56V184.971H303.806V179.858H306.649V192.785H303.806Z" fill="#FDC041"/>
<path d="M309.751 192.785V179.858H319.502V182.388H312.578V185.008H318.671V187.538H312.578V190.254H319.598V192.785H309.751V192.785Z" fill="#FDC041"/>
<path d="M329.972 192.785L327.204 188.652H324.97V192.785H322.128V179.858H328.035C331.085 179.858 332.91 181.461 332.91 184.125V184.162C332.91 186.247 331.782 187.561 330.142 188.169L333.304 192.785H329.972ZM330.031 184.266C330.031 183.049 329.185 182.418 327.797 182.418H324.97V186.128H327.849C329.237 186.128 330.031 185.394 330.031 184.303V184.266V184.266Z" fill="#FDC041"/>
<path d="M335.478 192.785V179.858H345.228V182.388H338.305V185.008H344.397V187.538H338.305V190.254H345.325V192.785H335.478V192.785Z" fill="#FDC041"/>
<path d="M10.4039 126.903H0V118.48H30.4104V119.705C30.4104 123.675 27.1898 126.896 23.2197 126.896H20.0139V153.15H10.4039V126.903Z" fill="#000086"/>
<path d="M34.6182 118.48H44.2281V131.459H56.5614V118.48H66.1714V153.158H56.5614V139.979H44.2281V153.158H34.6182V118.48Z" fill="#000086"/>
<path d="M72.3154 118.48H100.203V126.651H81.8289V131.905H98.4737V139.481H81.8289V144.98H100.455V153.15H72.3229V118.48H72.3154Z" fill="#000086"/>
<path d="M119.045 118.502H128.655V144.757H137.026C141.678 144.757 145.448 148.527 145.448 153.18H119.045V118.502Z" fill="#000086"/>
<path d="M149.552 118.502H177.439V126.673H159.065V131.927H175.71V139.503H159.065V145.002H177.691V153.172H149.559V118.502H149.552Z" fill="#000086"/>
<path d="M181.156 135.942V135.845C181.156 125.738 189.082 117.812 199.827 117.812C205.919 117.812 210.231 119.697 213.897 122.866L208.25 129.649C205.771 127.571 203.292 126.376 199.879 126.376C194.877 126.376 191.011 130.584 191.011 135.89V135.986C191.011 141.581 194.922 145.596 200.421 145.596C202.751 145.596 204.532 145.099 205.971 144.156V139.949H199.137V132.914H215.084V148.52C211.418 151.54 206.32 153.87 200.027 153.87C189.23 153.87 181.156 146.442 181.156 135.942Z" fill="#000086"/>
<path d="M232.42 118.258H241.681L256.441 153.18H246.141L243.618 146.991H230.246L227.767 153.18H217.66L232.42 118.258ZM240.843 139.511L236.976 129.656L233.066 139.511H240.843Z" fill="#000086"/>
<path d="M259.811 118.502H269.42V144.757H286.214V153.18H259.811V118.502Z" fill="#000086"/>
<path d="M299.533 135.905V135.808C299.533 125.708 307.303 117.791 317.796 117.791C323.525 117.791 327.599 119.735 330.574 122.74C331.702 123.876 331.547 125.753 330.285 126.733L327.198 129.122C326.166 129.916 324.712 129.857 323.755 128.974C322.115 127.46 320.2 126.554 317.692 126.554C312.839 126.554 309.425 130.666 309.425 135.712V135.808C309.425 141.003 312.839 145.062 317.692 145.062C320.475 145.062 322.374 144.068 324.051 142.457C324.972 141.574 326.396 141.485 327.435 142.227L330.404 144.342C331.725 145.285 331.925 147.177 330.812 148.357C327.747 151.622 323.658 153.826 317.395 153.826C307.503 153.826 299.533 146.249 299.533 135.905Z" fill="#000086"/>
<path d="M336.897 118.488H346.463C346.47 118.488 346.478 118.495 346.478 118.503V144.698C346.478 144.706 346.485 144.713 346.492 144.713H363.234C363.241 144.713 363.248 144.721 363.248 144.728V153.106C363.248 153.113 363.241 153.121 363.234 153.121H336.89C336.882 153.121 336.875 153.113 336.875 153.106V118.495C336.882 118.495 336.89 118.488 336.897 118.488Z" fill="#000086"/>
<path d="M367.581 118.488H377.199C377.206 118.488 377.213 118.495 377.213 118.503V153.113C377.213 153.121 377.206 153.128 377.199 153.128H367.581C367.574 153.128 367.566 153.121 367.566 153.113V118.503C367.566 118.495 367.574 118.488 367.581 118.488Z" fill="#000086"/>
<path d="M383.566 118.488H392.501C392.508 118.488 392.508 118.488 392.516 118.495L406.734 136.765C406.741 136.78 406.764 136.773 406.764 136.758V118.51C406.764 118.503 406.771 118.495 406.778 118.495H416.247C416.255 118.495 416.262 118.503 416.262 118.51V153.121C416.262 153.128 416.255 153.136 416.247 153.136H407.862C407.854 153.136 407.854 153.136 407.847 153.128L393.087 134.168C393.08 134.153 393.057 134.161 393.057 134.176V153.113C393.057 153.121 393.05 153.128 393.043 153.128H383.574C383.566 153.128 383.559 153.121 383.559 153.113V118.503C383.551 118.495 383.559 118.488 383.566 118.488Z" fill="#000086"/>
<path d="M422.614 118.488H432.232C432.239 118.488 432.247 118.495 432.247 118.503V153.113C432.247 153.121 432.239 153.128 432.232 153.128H422.614C422.607 153.128 422.6 153.121 422.6 153.113V118.503C422.6 118.495 422.607 118.488 422.614 118.488Z" fill="#000086"/>
<path d="M435.26 135.905V135.808C435.26 125.708 443.029 117.791 453.522 117.791C459.251 117.791 463.325 119.735 466.301 122.74C467.429 123.876 467.273 125.753 466.011 126.733L462.924 129.122C461.893 129.916 460.438 129.857 459.481 128.974C457.841 127.46 455.927 126.554 453.418 126.554C448.565 126.554 445.152 130.666 445.152 135.712V135.808C445.152 141.003 448.565 145.062 453.418 145.062C456.201 145.062 458.101 144.068 459.778 142.457C460.698 141.574 462.123 141.485 463.162 142.227L466.13 144.342C467.451 145.285 467.652 147.177 466.538 148.357C463.474 151.622 459.385 153.826 453.122 153.826C443.23 153.826 435.26 146.249 435.26 135.905Z" fill="#000086"/>
<path d="M258.221 12.9048H198.372V0H268.892V2.23367C268.892 8.12578 264.113 12.9048 258.221 12.9048Z" fill="#FDC041"/>
<path d="M268.892 70.9649H198.372V20.5332H211.277V58.0676H255.987C263.111 58.0602 268.892 63.841 268.892 70.9649Z" fill="#000086"/>
<path d="M233.191 35.4789C233.191 36.6143 234.111 37.5345 235.246 37.5345H263.245C265.011 37.5345 266.443 38.9667 266.443 40.7328V47.2483C266.443 49.0144 265.011 50.4466 263.245 50.4466H220.301V50.2389H220.286V20.5334H220.301V20.5186H263.245C265.011 20.5186 266.443 21.9508 266.443 23.7169V30.225C266.443 31.9911 265.011 33.4233 263.245 33.4233H235.246C234.118 33.4159 233.191 34.3361 233.191 35.4789Z" fill="#FDC041"/>
</svg>
