<svg width="24" height="23" viewBox="0 0 24 23" fill="none" xmlns="http://www.w3.org/2000/svg">
<path d="M8.5 5.92834H10.8094V16.5002C10.8094 16.6377 10.9219 16.7502 11.0594 16.7502H12.9344C13.0719 16.7502 13.1844 16.6377 13.1844 16.5002V5.92834H15.5C15.7094 5.92834 15.825 5.68772 15.6969 5.52522L12.1969 1.09397C12.1735 1.06409 12.1436 1.03992 12.1095 1.0233C12.0754 1.00668 12.0379 0.998047 12 0.998047C11.9621 0.998047 11.9246 1.00668 11.8905 1.0233C11.8564 1.03992 11.8265 1.06409 11.8031 1.09397L8.30313 5.52209C8.175 5.68772 8.29063 5.92834 8.5 5.92834ZM23.4375 15.5627H21.5625C21.425 15.5627 21.3125 15.6752 21.3125 15.8127V20.6252H2.6875V15.8127C2.6875 15.6752 2.575 15.5627 2.4375 15.5627H0.5625C0.425 15.5627 0.3125 15.6752 0.3125 15.8127V22.0002C0.3125 22.5533 0.759375 23.0002 1.3125 23.0002H22.6875C23.2406 23.0002 23.6875 22.5533 23.6875 22.0002V15.8127C23.6875 15.6752 23.575 15.5627 23.4375 15.5627Z" fill="#000086"/>
</svg>
