<svg width="18" height="10" viewBox="0 0 18 10" fill="none" xmlns="http://www.w3.org/2000/svg">
<path d="M15.3041 0H17.2025C17.3619 0 17.4486 0.1875 17.3431 0.309375L9.56658 9.27422C9.49626 9.35534 9.40933 9.4204 9.31167 9.46498C9.21401 9.50957 9.10791 9.53265 9.00056 9.53265C8.8932 9.53265 8.7871 9.50957 8.68945 9.46498C8.59179 9.4204 8.50486 9.35534 8.43454 9.27422L0.655638 0.309375C0.550169 0.189844 0.636888 0 0.796263 0H2.6947C2.80486 0 2.90798 0.046875 2.97829 0.128906L7.99951 6.09448L8.99951 7.09448L9.99951 6.09448L15.0205 0.128906C15.0931 0.046875 15.1963 0 15.3041 0Z" fill="white"/>
</svg>
